<svg xmlns="http://www.w3.org/2000/svg" width="40.026" height="39.804" viewBox="0 0 40.026 39.804">
  <g id="build" transform="translate(-1067 -874.271)">
    <path id="_Path_" data-name="&lt;Path&gt;" d="M26.484,10.79h0a8.647,8.647,0,0,1,0,12.353l-7.066,6.943a8.647,8.647,0,0,1-12.353,0h0a8.647,8.647,0,0,1,0-12.353L9.19,15.608" transform="translate(1063.531 880.393)" fill="none" stroke="#ffa509" stroke-linecap="round" stroke-linejoin="round" stroke-width="2"/>
    <path id="_Path_2" data-name="&lt;Path&gt;" d="M12.545,26.241h0a8.647,8.647,0,0,1,0-12.353l6.943-6.943a8.647,8.647,0,0,1,12.353,0h0a8.647,8.647,0,0,1,0,12.353l-2.125,2.125" transform="translate(1071.59 870.921)" fill="none" stroke="#ed3237" stroke-linecap="round" stroke-linejoin="round" stroke-width="2"/>
  </g>
</svg>
