<svg xmlns="http://www.w3.org/2000/svg" xmlns:xlink="http://www.w3.org/1999/xlink" width="39.684" height="41.502" viewBox="0 0 39.684 41.502">
  <defs>
    <linearGradient id="linear-gradient" x1="-1.402" y1="1.954" x2="4.483" y2="-0.555" gradientUnits="objectBoundingBox">
      <stop offset="0" stop-color="#ffa509"/>
      <stop offset="1" stop-color="#ed3237"/>
      <stop offset="1"/>
    </linearGradient>
  </defs>
  <g id="visibility" transform="translate(-60.428 -48.53)">
    <path id="Path_89" data-name="Path 89" d="M69.5,177.666a.689.689,0,0,0-.043-.712l-3.885-5.625a.689.689,0,0,0-1.134,0l-3.885,5.625a.689.689,0,1,0,1.134.783l3.318-4.8,2.572,3.723H66.408a.689.689,0,0,0-.689.689v13.182H64.283V177.346a.689.689,0,0,0-1.378,0v13.871a.689.689,0,0,0,.689.689h2.814a.689.689,0,0,0,.689-.689V178.035h1.789A.689.689,0,0,0,69.5,177.666Z" transform="translate(0 -110.45)" fill="url(#linear-gradient)"/>
    <path id="Path_90" data-name="Path 90" d="M88.292,391.283H85.478a.689.689,0,0,0-.689.689v3.06a.689.689,0,0,0,.689.689h2.814a.689.689,0,0,0,.689-.689v-3.06A.689.689,0,0,0,88.292,391.283Zm-.689,3.06H86.167v-1.682H87.6Z" transform="translate(-21.884 -308.592)" fill="url(#linear-gradient)"/>
    <path id="Path_91" data-name="Path 91" d="M88.292,449.92H85.478a.689.689,0,1,0,0,1.378h2.814a.689.689,0,1,0,0-1.378Z" transform="translate(-21.884 -361.266)" fill="url(#linear-gradient)"/>
    <path id="Path_92" data-name="Path 92" d="M370.653,127.911l-3.885-5.625a.689.689,0,0,0-1.134,0l-3.885,5.625a.689.689,0,1,0,1.134.783l3.318-4.8,2.571,3.724h-1.164a.689.689,0,0,0-.689.689v7.08h-1.436V128.3a.689.689,0,1,0-1.378,0v7.769a.689.689,0,0,0,.689.689h2.814a.689.689,0,0,0,.689-.689v-7.08h1.789a.689.689,0,0,0,.567-1.081Z" transform="translate(-270.663 -66.178)" fill="url(#linear-gradient)"/>
    <path id="Path_93" data-name="Path 93" d="M210.911,55.411a.689.689,0,0,0,.958-.175l3.318-4.8,2.572,3.723h-1.165a.689.689,0,0,0-.689.689v7.474H214.47V54.844a.689.689,0,1,0-1.378,0v8.163a.689.689,0,0,0,.689.689h2.814a.689.689,0,0,0,.689-.689V55.533h1.789a.689.689,0,0,0,.567-1.08l-3.885-5.625a.689.689,0,0,0-1.134,0l-3.885,5.625A.689.689,0,0,0,210.911,55.411Z" transform="translate(-134.96)" fill="url(#linear-gradient)"/>
    <path id="Path_94" data-name="Path 94" d="M389.5,282.242h-2.814a.689.689,0,0,0-.689.689v3.06a.689.689,0,0,0,.689.689H389.5a.689.689,0,0,0,.689-.689v-3.06A.689.689,0,0,0,389.5,282.242Zm-.689,3.06H387.37V283.62h1.436Z" transform="translate(-292.549 -210.382)" fill="url(#linear-gradient)"/>
    <path id="Path_95" data-name="Path 95" d="M389.5,340.879h-2.814a.689.689,0,1,0,0,1.378H389.5a.689.689,0,0,0,0-1.378Z" transform="translate(-292.549 -263.125)" fill="url(#linear-gradient)"/>
    <path id="Path_96" data-name="Path 96" d="M163.21,235.172a16.144,16.144,0,0,1-4.094-3.422c-3.178-3.766-6.7-3.721-7.225-3.692-.525-.029-4.048-.073-7.228,3.7a17.817,17.817,0,0,1-1.81,1.812.688.688,0,0,0,.9,1.042,18.988,18.988,0,0,0,1.962-1.967c2.888-3.422,5.992-3.215,6.117-3.206a.664.664,0,0,0,.124,0c.032,0,3.2-.247,6.113,3.2a18.492,18.492,0,0,0,3.488,3.145,18.5,18.5,0,0,0-3.485,3.142c-2.888,3.422-5.99,3.216-6.117,3.206a.66.66,0,0,0-.124,0c-.032,0-3.2.247-6.113-3.2a17.274,17.274,0,0,0-4.508-3.756.688.688,0,0,0-.636,1.221,16.157,16.157,0,0,1,4.094,3.422,9.377,9.377,0,0,0,7.008,3.7c.1,0,.169,0,.217-.006.527.03,4.048.073,7.228-3.7a16.09,16.09,0,0,1,4.091-3.418.69.69,0,0,0,0-1.221Z" transform="translate(-71.663 -161.741)" fill="url(#linear-gradient)"/>
    <path id="Path_97" data-name="Path 97" d="M210.134,258.789a.688.688,0,0,0-.956.19,4.794,4.794,0,1,0,2.351-1.847.689.689,0,1,0,.472,1.295,3.423,3.423,0,1,1-1.678,1.318A.689.689,0,0,0,210.134,258.789Z" transform="translate(-132.945 -187.581)" fill="url(#linear-gradient)"/>
    <path id="Path_98" data-name="Path 98" d="M250.193,296.247v-.527a.689.689,0,1,0-1.378,0v.527a.689.689,0,1,0,1.378,0Z" transform="translate(-169.276 -221.866)" fill="url(#linear-gradient)"/>
  </g>
</svg>
